<svg xmlns="http://www.w3.org/2000/svg" viewBox="0 0 320 320" width="220" height="220" fill="none">
  <defs>
    <linearGradient id="og1" x1="0" x2="1" y1="0" y2="1">
      <stop offset="0%" stop-color="#bd93f9"/>
      <stop offset="100%" stop-color="#ff79c6"/>
    </linearGradient>
    <radialGradient id="ogc" cx="50%" cy="50%" r="50%">
      <stop offset="0%" stop-color="#bd93f9" stop-opacity="0.18"/>
      <stop offset="60%" stop-color="#bd93f9" stop-opacity="0.04"/>
      <stop offset="100%" stop-color="#bd93f9" stop-opacity="0"/>
    </radialGradient>
  </defs>

  <circle class="ob-halo" cx="160" cy="160" r="110" fill="url(#ogc)"/>
  <circle class="ob-dotted" cx="160" cy="160" r="100" fill="none" stroke="#bd93f9" stroke-width="0.4" stroke-dasharray="1 6"/>

  <g class="ob-ring">
    <path d="M 155 40
             A 120 120 0 0 0 40 160
             A 120 120 0 0 0 160 280
             A 120 120 0 0 0 280 160
             A 120 120 0 0 0 175 40"
          fill="none" stroke="url(#og1)" stroke-width="11" stroke-linecap="round"/>
    <path d="M 155 40
             A 120 120 0 0 0 40 160
             A 120 120 0 0 0 160 280
             A 120 120 0 0 0 280 160
             A 120 120 0 0 0 175 40"
          fill="none" stroke="#0e0f15" stroke-width="11" stroke-linecap="round"
          stroke-dasharray="1.5 13" opacity="0.55"/>

    <circle cx="155" cy="40" r="6" fill="#bd93f9"/>

    <g transform="translate(175,40)">
      <path d="M 0 -2 C -4 -10, -16 -12, -24 -8 C -28 -6, -30 -2, -28 0 L -8 -1 Z"
            fill="#ff79c6" stroke="#bd93f9" stroke-width="0.8" stroke-linejoin="round"/>
      <path d="M 0 2 C -4 8, -14 10, -22 7 C -26 5, -28 2, -26 0 L -8 1 Z"
            fill="#c77ab0" stroke="#bd93f9" stroke-width="0.8" stroke-linejoin="round"/>
      <ellipse cx="-4" cy="-3" rx="9" ry="5" fill="#ff79c6" opacity="0.9"/>
      <circle cx="-6" cy="-4" r="1.8" fill="#0e0f15"/>
      <circle cx="-5.5" cy="-4.6" r="0.6" fill="#f8f8f2"/>
      <path d="M -28 0 L -34 -2 M -28 0 L -34 2"
            stroke="#ff79c6" stroke-width="0.8" stroke-linecap="round" fill="none"/>
    </g>
  </g>

  <text x="160" y="158" text-anchor="middle"
        font-family="ui-monospace, 'JetBrains Mono', monospace"
        font-size="18" font-weight="500" letter-spacing="6" fill="#bd93f9">OUROBOROS</text>
  <text x="160" y="176" text-anchor="middle"
        font-family="ui-monospace, 'JetBrains Mono', monospace"
        font-size="9" letter-spacing="3" fill="#7c7e8c">PROTOCOLO</text>
</svg>
